<svg class="marks" width="765" height="454" xmlns="http://www.w3.org/2000/svg"><g transform="translate(46,6)"><g id="g1" class="type-group"><g transform="translate(0,0)"><rect class="background" width="600" height="400" style="pointer-events: none; fill: none;"></rect><g id="g2" class="type-group"><g transform="translate(0,400)"><rect class="background" width="0" height="0" style="pointer-events: none; fill: none;"></rect><g id="g3" class="type-rule" style="pointer-events: none;"><line x1="9.590909090909092" y1="-400" x2="9.590909090909092" y2="0" style="fill: none; stroke: rgb(216, 216, 216); stroke-width: 1px; opacity: 1;"></line><line x1="45.95454545454546" y1="-400" x2="45.95454545454546" y2="0" style="fill: none; stroke: rgb(216, 216, 216); stroke-width: 1px; opacity: 1;"></line><line x1="82.31818181818183" y1="-400" x2="82.31818181818183" y2="0" style="fill: none; stroke: rgb(216, 216, 216); stroke-width: 1px; opacity: 1;"></line><line x1="118.68181818181819" y1="-400" x2="118.68181818181819" y2="0" style="fill: none; stroke: rgb(216, 216, 216); stroke-width: 1px; opacity: 1;"></line><line x1="155.04545454545456" y1="-400" x2="155.04545454545456" y2="0" style="fill: none; stroke: rgb(216, 216, 216); stroke-width: 1px; opacity: 1;"></line><line x1="191.40909090909093" y1="-400" x2="191.40909090909093" y2="0" style="fill: none; stroke: rgb(216, 216, 216); stroke-width: 1px; opacity: 1;"></line><line x1="227.77272727272728" y1="-400" x2="227.77272727272728" y2="0" style="fill: none; stroke: rgb(216, 216, 216); stroke-width: 1px; opacity: 1;"></line><line x1="264.1363636363636" y1="-400" x2="264.1363636363636" y2="0" style="fill: none; stroke: rgb(216, 216, 216); stroke-width: 1px; opacity: 1;"></line><line x1="300.5" y1="-400" x2="300.5" y2="0" style="fill: none; stroke: rgb(216, 216, 216); stroke-width: 1px; opacity: 1;"></line><line x1="336.8636363636364" y1="-400" x2="336.8636363636364" y2="0" style="fill: none; stroke: rgb(216, 216, 216); stroke-width: 1px; opacity: 1;"></line><line x1="373.22727272727275" y1="-400" x2="373.22727272727275" y2="0" style="fill: none; stroke: rgb(216, 216, 216); stroke-width: 1px; opacity: 1;"></line><line x1="409.5909090909091" y1="-400" x2="409.5909090909091" y2="0" style="fill: none; stroke: rgb(216, 216, 216); stroke-width: 1px; opacity: 1;"></line><line x1="445.95454545454544" y1="-400" x2="445.95454545454544" y2="0" style="fill: none; stroke: rgb(216, 216, 216); stroke-width: 1px; opacity: 1;"></line><line x1="482.3181818181818" y1="-400" x2="482.3181818181818" y2="0" style="fill: none; stroke: rgb(216, 216, 216); stroke-width: 1px; opacity: 1;"></line><line x1="518.6818181818182" y1="-400" x2="518.6818181818182" y2="0" style="fill: none; stroke: rgb(216, 216, 216); stroke-width: 1px; opacity: 1;"></line><line x1="555.0454545454546" y1="-400" x2="555.0454545454546" y2="0" style="fill: none; stroke: rgb(216, 216, 216); stroke-width: 1px; opacity: 1;"></line><line x1="591.409090909091" y1="-400" x2="591.409090909091" y2="0" style="fill: none; stroke: rgb(216, 216, 216); stroke-width: 1px; opacity: 1;"></line></g><g id="g4" class="type-rule" style="pointer-events: none;"><line x1="9.590909090909092" y1="0" x2="9.590909090909092" y2="6" style="fill: none; stroke: rgb(0, 0, 0); stroke-width: 1px; opacity: 1;"></line><line x1="45.95454545454546" y1="0" x2="45.95454545454546" y2="6" style="fill: none; stroke: rgb(0, 0, 0); stroke-width: 1px; opacity: 1;"></line><line x1="82.31818181818183" y1="0" x2="82.31818181818183" y2="6" style="fill: none; stroke: rgb(0, 0, 0); stroke-width: 1px; opacity: 1;"></line><line x1="118.68181818181819" y1="0" x2="118.68181818181819" y2="6" style="fill: none; stroke: rgb(0, 0, 0); stroke-width: 1px; opacity: 1;"></line><line x1="155.04545454545456" y1="0" x2="155.04545454545456" y2="6" style="fill: none; stroke: rgb(0, 0, 0); stroke-width: 1px; opacity: 1;"></line><line x1="191.40909090909093" y1="0" x2="191.40909090909093" y2="6" style="fill: none; stroke: rgb(0, 0, 0); stroke-width: 1px; opacity: 1;"></line><line x1="227.77272727272728" y1="0" x2="227.77272727272728" y2="6" style="fill: none; stroke: rgb(0, 0, 0); stroke-width: 1px; opacity: 1;"></line><line x1="264.1363636363636" y1="0" x2="264.1363636363636" y2="6" style="fill: none; stroke: rgb(0, 0, 0); stroke-width: 1px; opacity: 1;"></line><line x1="300.5" y1="0" x2="300.5" y2="6" style="fill: none; stroke: rgb(0, 0, 0); stroke-width: 1px; opacity: 1;"></line><line x1="336.8636363636364" y1="0" x2="336.8636363636364" y2="6" style="fill: none; stroke: rgb(0, 0, 0); stroke-width: 1px; opacity: 1;"></line><line x1="373.22727272727275" y1="0" x2="373.22727272727275" y2="6" style="fill: none; stroke: rgb(0, 0, 0); stroke-width: 1px; opacity: 1;"></line><line x1="409.5909090909091" y1="0" x2="409.5909090909091" y2="6" style="fill: none; stroke: rgb(0, 0, 0); stroke-width: 1px; opacity: 1;"></line><line x1="445.95454545454544" y1="0" x2="445.95454545454544" y2="6" style="fill: none; stroke: rgb(0, 0, 0); stroke-width: 1px; opacity: 1;"></line><line x1="482.3181818181818" y1="0" x2="482.3181818181818" y2="6" style="fill: none; stroke: rgb(0, 0, 0); stroke-width: 1px; opacity: 1;"></line><line x1="518.6818181818182" y1="0" x2="518.6818181818182" y2="6" style="fill: none; stroke: rgb(0, 0, 0); stroke-width: 1px; opacity: 1;"></line><line x1="555.0454545454546" y1="0" x2="555.0454545454546" y2="6" style="fill: none; stroke: rgb(0, 0, 0); stroke-width: 1px; opacity: 1;"></line><line x1="591.409090909091" y1="0" x2="591.409090909091" y2="6" style="fill: none; stroke: rgb(0, 0, 0); stroke-width: 1px; opacity: 1;"></line></g><g id="g5" class="type-rule" style="pointer-events: none;"></g><g id="g6" class="type-text"><text x="9.590909090909092" y="9" text-anchor="middle" dy=".9em" style="font-style: normal; font-variant: normal; font-weight: normal; font-size: 11px; line-height: normal; font-family: sans-serif; fill: rgb(0, 0, 0); opacity: 1;">16</text><text x="45.95454545454546" y="9" text-anchor="middle" dy=".9em" style="font-style: normal; font-variant: normal; font-weight: normal; font-size: 11px; line-height: normal; font-family: sans-serif; fill: rgb(0, 0, 0); opacity: 1;">17</text><text x="82.31818181818183" y="9" text-anchor="middle" dy=".9em" style="font-style: normal; font-variant: normal; font-weight: normal; font-size: 11px; line-height: normal; font-family: sans-serif; fill: rgb(0, 0, 0); opacity: 1;">18</text><text x="118.68181818181819" y="9" text-anchor="middle" dy=".9em" style="font-style: normal; font-variant: normal; font-weight: normal; font-size: 11px; line-height: normal; font-family: sans-serif; fill: rgb(0, 0, 0); opacity: 1;">19</text><text x="155.04545454545456" y="9" text-anchor="middle" dy=".9em" style="font-style: normal; font-variant: normal; font-weight: normal; font-size: 11px; line-height: normal; font-family: sans-serif; fill: rgb(0, 0, 0); opacity: 1;">20</text><text x="191.40909090909093" y="9" text-anchor="middle" dy=".9em" style="font-style: normal; font-variant: normal; font-weight: normal; font-size: 11px; line-height: normal; font-family: sans-serif; fill: rgb(0, 0, 0); opacity: 1;">21</text><text x="227.77272727272728" y="9" text-anchor="middle" dy=".9em" style="font-style: normal; font-variant: normal; font-weight: normal; font-size: 11px; line-height: normal; font-family: sans-serif; fill: rgb(0, 0, 0); opacity: 1;">22</text><text x="264.1363636363636" y="9" text-anchor="middle" dy=".9em" style="font-style: normal; font-variant: normal; font-weight: normal; font-size: 11px; line-height: normal; font-family: sans-serif; fill: rgb(0, 0, 0); opacity: 1;">23</text><text x="300.5" y="9" text-anchor="middle" dy=".9em" style="font-style: normal; font-variant: normal; font-weight: normal; font-size: 11px; line-height: normal; font-family: sans-serif; fill: rgb(0, 0, 0); opacity: 1;">24</text><text x="336.8636363636364" y="9" text-anchor="middle" dy=".9em" style="font-style: normal; font-variant: normal; font-weight: normal; font-size: 11px; line-height: normal; font-family: sans-serif; fill: rgb(0, 0, 0); opacity: 1;">25</text><text x="373.22727272727275" y="9" text-anchor="middle" dy=".9em" style="font-style: normal; font-variant: normal; font-weight: normal; font-size: 11px; line-height: normal; font-family: sans-serif; fill: rgb(0, 0, 0); opacity: 1;">26</text><text x="409.5909090909091" y="9" text-anchor="middle" dy=".9em" style="font-style: normal; font-variant: normal; font-weight: normal; font-size: 11px; line-height: normal; font-family: sans-serif; fill: rgb(0, 0, 0); opacity: 1;">27</text><text x="445.95454545454544" y="9" text-anchor="middle" dy=".9em" style="font-style: normal; font-variant: normal; font-weight: normal; font-size: 11px; line-height: normal; font-family: sans-serif; fill: rgb(0, 0, 0); opacity: 1;">28</text><text x="482.3181818181818" y="9" text-anchor="middle" dy=".9em" style="font-style: normal; font-variant: normal; font-weight: normal; font-size: 11px; line-height: normal; font-family: sans-serif; fill: rgb(0, 0, 0); opacity: 1;">29</text><text x="518.6818181818182" y="9" text-anchor="middle" dy=".9em" style="font-style: normal; font-variant: normal; font-weight: normal; font-size: 11px; line-height: normal; font-family: sans-serif; fill: rgb(0, 0, 0); opacity: 1;">30</text><text x="555.0454545454546" y="9" text-anchor="middle" dy=".9em" style="font-style: normal; font-variant: normal; font-weight: normal; font-size: 11px; line-height: normal; font-family: sans-serif; fill: rgb(0, 0, 0); opacity: 1;">31</text><text x="591.409090909091" y="9" text-anchor="middle" dy=".9em" style="font-style: normal; font-variant: normal; font-weight: normal; font-size: 11px; line-height: normal; font-family: sans-serif; fill: rgb(0, 0, 0); opacity: 1;">33</text></g><g id="g7" class="type-path" style="pointer-events: none;"><path transform="translate(0.5,0.5)" d="M0,6V0H600V6" style="fill: none; stroke: rgb(0, 0, 0); stroke-width: 1px;"></path></g><g id="g8" class="type-text"><text x="300" y="35" text-anchor="middle" dy=".35em" style="font-weight: bold; font-style: normal; font-variant: normal; font-size: 11px; line-height: normal; font-family: sans-serif; fill: rgb(0, 0, 0);">Age</text></g></g></g><g id="g9" class="type-group"><g transform="translate(0,0)"><rect class="background" width="0" height="0" style="pointer-events: none; fill: none;"></rect><g id="g10" class="type-rule" style="pointer-events: none;"><line x1="0" y1="382.3181818181818" x2="600" y2="382.3181818181818" style="fill: none; stroke: rgb(216, 216, 216); stroke-width: 1px; opacity: 1;"></line><line x1="0" y1="352.0151515151515" x2="600" y2="352.0151515151515" style="fill: none; stroke: rgb(216, 216, 216); stroke-width: 1px; opacity: 1;"></line><line x1="0" y1="321.7121212121212" x2="600" y2="321.7121212121212" style="fill: none; stroke: rgb(216, 216, 216); stroke-width: 1px; opacity: 1;"></line><line x1="0" y1="291.4090909090909" x2="600" y2="291.4090909090909" style="fill: none; stroke: rgb(216, 216, 216); stroke-width: 1px; opacity: 1;"></line><line x1="0" y1="261.1060606060606" x2="600" y2="261.1060606060606" style="fill: none; stroke: rgb(216, 216, 216); stroke-width: 1px; opacity: 1;"></line><line x1="0" y1="230.8030303030303" x2="600" y2="230.8030303030303" style="fill: none; stroke: rgb(216, 216, 216); stroke-width: 1px; opacity: 1;"></line><line x1="0" y1="200.5" x2="600" y2="200.5" style="fill: none; stroke: rgb(216, 216, 216); stroke-width: 1px; opacity: 1;"></line><line x1="0" y1="170.1969696969697" x2="600" y2="170.1969696969697" style="fill: none; stroke: rgb(216, 216, 216); stroke-width: 1px; opacity: 1;"></line><line x1="0" y1="139.89393939393938" x2="600" y2="139.89393939393938" style="fill: none; stroke: rgb(216, 216, 216); stroke-width: 1px; opacity: 1;"></line><line x1="0" y1="109.59090909090907" x2="600" y2="109.59090909090907" style="fill: none; stroke: rgb(216, 216, 216); stroke-width: 1px; opacity: 1;"></line><line x1="0" y1="79.28787878787881" x2="600" y2="79.28787878787881" style="fill: none; stroke: rgb(216, 216, 216); stroke-width: 1px; opacity: 1;"></line><line x1="0" y1="48.9848484848485" x2="600" y2="48.9848484848485" style="fill: none; stroke: rgb(216, 216, 216); stroke-width: 1px; opacity: 1;"></line><line x1="0" y1="18.681818181818187" x2="600" y2="18.681818181818187" style="fill: none; stroke: rgb(216, 216, 216); stroke-width: 1px; opacity: 1;"></line></g><g id="g11" class="type-rule" style="pointer-events: none;"><line x1="-6" y1="382.3181818181818" x2="0" y2="382.3181818181818" style="fill: none; stroke: rgb(0, 0, 0); stroke-width: 1px; opacity: 1;"></line><line x1="-6" y1="352.0151515151515" x2="0" y2="352.0151515151515" style="fill: none; stroke: rgb(0, 0, 0); stroke-width: 1px; opacity: 1;"></line><line x1="-6" y1="321.7121212121212" x2="0" y2="321.7121212121212" style="fill: none; stroke: rgb(0, 0, 0); stroke-width: 1px; opacity: 1;"></line><line x1="-6" y1="291.4090909090909" x2="0" y2="291.4090909090909" style="fill: none; stroke: rgb(0, 0, 0); stroke-width: 1px; opacity: 1;"></line><line x1="-6" y1="261.1060606060606" x2="0" y2="261.1060606060606" style="fill: none; stroke: rgb(0, 0, 0); stroke-width: 1px; opacity: 1;"></line><line x1="-6" y1="230.8030303030303" x2="0" y2="230.8030303030303" style="fill: none; stroke: rgb(0, 0, 0); stroke-width: 1px; opacity: 1;"></line><line x1="-6" y1="200.5" x2="0" y2="200.5" style="fill: none; stroke: rgb(0, 0, 0); stroke-width: 1px; opacity: 1;"></line><line x1="-6" y1="170.1969696969697" x2="0" y2="170.1969696969697" style="fill: none; stroke: rgb(0, 0, 0); stroke-width: 1px; opacity: 1;"></line><line x1="-6" y1="139.89393939393938" x2="0" y2="139.89393939393938" style="fill: none; stroke: rgb(0, 0, 0); stroke-width: 1px; opacity: 1;"></line><line x1="-6" y1="109.59090909090907" x2="0" y2="109.59090909090907" style="fill: none; stroke: rgb(0, 0, 0); stroke-width: 1px; opacity: 1;"></line><line x1="-6" y1="79.28787878787881" x2="0" y2="79.28787878787881" style="fill: none; stroke: rgb(0, 0, 0); stroke-width: 1px; opacity: 1;"></line><line x1="-6" y1="48.9848484848485" x2="0" y2="48.9848484848485" style="fill: none; stroke: rgb(0, 0, 0); stroke-width: 1px; opacity: 1;"></line><line x1="-6" y1="18.681818181818187" x2="0" y2="18.681818181818187" style="fill: none; stroke: rgb(0, 0, 0); stroke-width: 1px; opacity: 1;"></line></g><g id="g12" class="type-rule" style="pointer-events: none;"></g><g id="g13" class="type-text"><text x="-9" y="382.3181818181818" text-anchor="end" dy=".35em" style="font-style: normal; font-variant: normal; font-weight: normal; font-size: 11px; line-height: normal; font-family: sans-serif; fill: rgb(0, 0, 0); opacity: 1;">1.0</text><text x="-9" y="352.0151515151515" text-anchor="end" dy=".35em" style="font-style: normal; font-variant: normal; font-weight: normal; font-size: 11px; line-height: normal; font-family: sans-serif; fill: rgb(0, 0, 0); opacity: 1;">1.5</text><text x="-9" y="321.7121212121212" text-anchor="end" dy=".35em" style="font-style: normal; font-variant: normal; font-weight: normal; font-size: 11px; line-height: normal; font-family: sans-serif; fill: rgb(0, 0, 0); opacity: 1;">2.0</text><text x="-9" y="291.4090909090909" text-anchor="end" dy=".35em" style="font-style: normal; font-variant: normal; font-weight: normal; font-size: 11px; line-height: normal; font-family: sans-serif; fill: rgb(0, 0, 0); opacity: 1;">2.5</text><text x="-9" y="261.1060606060606" text-anchor="end" dy=".35em" style="font-style: normal; font-variant: normal; font-weight: normal; font-size: 11px; line-height: normal; font-family: sans-serif; fill: rgb(0, 0, 0); opacity: 1;">3.0</text><text x="-9" y="230.8030303030303" text-anchor="end" dy=".35em" style="font-style: normal; font-variant: normal; font-weight: normal; font-size: 11px; line-height: normal; font-family: sans-serif; fill: rgb(0, 0, 0); opacity: 1;">3.5</text><text x="-9" y="200.5" text-anchor="end" dy=".35em" style="font-style: normal; font-variant: normal; font-weight: normal; font-size: 11px; line-height: normal; font-family: sans-serif; fill: rgb(0, 0, 0); opacity: 1;">4.0</text><text x="-9" y="170.1969696969697" text-anchor="end" dy=".35em" style="font-style: normal; font-variant: normal; font-weight: normal; font-size: 11px; line-height: normal; font-family: sans-serif; fill: rgb(0, 0, 0); opacity: 1;">4.5</text><text x="-9" y="139.89393939393938" text-anchor="end" dy=".35em" style="font-style: normal; font-variant: normal; font-weight: normal; font-size: 11px; line-height: normal; font-family: sans-serif; fill: rgb(0, 0, 0); opacity: 1;">5.0</text><text x="-9" y="109.59090909090907" text-anchor="end" dy=".35em" style="font-style: normal; font-variant: normal; font-weight: normal; font-size: 11px; line-height: normal; font-family: sans-serif; fill: rgb(0, 0, 0); opacity: 1;">5.5</text><text x="-9" y="79.28787878787881" text-anchor="end" dy=".35em" style="font-style: normal; font-variant: normal; font-weight: normal; font-size: 11px; line-height: normal; font-family: sans-serif; fill: rgb(0, 0, 0); opacity: 1;">6.0</text><text x="-9" y="48.9848484848485" text-anchor="end" dy=".35em" style="font-style: normal; font-variant: normal; font-weight: normal; font-size: 11px; line-height: normal; font-family: sans-serif; fill: rgb(0, 0, 0); opacity: 1;">6.5</text><text x="-9" y="18.681818181818187" text-anchor="end" dy=".35em" style="font-style: normal; font-variant: normal; font-weight: normal; font-size: 11px; line-height: normal; font-family: sans-serif; fill: rgb(0, 0, 0); opacity: 1;">7.0</text></g><g id="g14" class="type-path" style="pointer-events: none;"><path transform="translate(0.5,0.5)" d="M-6,0H0V400H-6" style="fill: none; stroke: rgb(0, 0, 0); stroke-width: 1px;"></path></g><g id="g15" class="type-text"><text x="-35" y="200" text-anchor="middle" transform="rotate(-90 -35,200)" dy=".35em" style="font-weight: bold; font-style: normal; font-variant: normal; font-size: 11px; line-height: normal; font-family: sans-serif; fill: rgb(0, 0, 0);">freq</text></g></g></g><g id="g16" class="type-group"><g transform="translate(0,0)"><rect class="background" width="0" height="0" style="fill: none;"></rect><g id="g17" class="type-symbol"><path transform="translate(9.090909090909092,381.8181818181818)" d="M0,3.989422804014327A3.989422804014327,3.989422804014327 0 1,1 0,-3.989422804014327A3.989422804014327,3.989422804014327 0 1,1 0,3.989422804014327Z" style="fill: rgb(243, 162, 16); fill-opacity: 0.75;"></path><path transform="translate(9.090909090909092,381.8181818181818)" d="M0,3.989422804014327A3.989422804014327,3.989422804014327 0 1,1 0,-3.989422804014327A3.989422804014327,3.989422804014327 0 1,1 0,3.989422804014327Z" style="fill: rgb(5, 75, 33); fill-opacity: 0.75;"></path><path transform="translate(9.090909090909092,321.2121212121212)" d="M0,3.989422804014327A3.989422804014327,3.989422804014327 0 1,1 0,-3.989422804014327A3.989422804014327,3.989422804014327 0 1,1 0,3.989422804014327Z" style="fill: rgb(176, 41, 57); fill-opacity: 0.75;"></path><path transform="translate(9.090909090909092,381.8181818181818)" d="M0,3.989422804014327A3.989422804014327,3.989422804014327 0 1,1 0,-3.989422804014327A3.989422804014327,3.989422804014327 0 1,1 0,3.989422804014327Z" style="fill: rgb(66, 35, 121); fill-opacity: 0.75;"></path></g></g><g transform="translate(0,0)"><rect class="background" width="0" height="0" style="fill: none;"></rect><g id="g18" class="type-symbol"><path transform="translate(45.45454545454546,321.2121212121212)" d="M0,3.989422804014327A3.989422804014327,3.989422804014327 0 1,1 0,-3.989422804014327A3.989422804014327,3.989422804014327 0 1,1 0,3.989422804014327Z" style="fill: rgb(243, 162, 16); fill-opacity: 0.75;"></path><path transform="translate(45.45454545454546,260.6060606060606)" d="M0,3.989422804014327A3.989422804014327,3.989422804014327 0 1,1 0,-3.989422804014327A3.989422804014327,3.989422804014327 0 1,1 0,3.989422804014327Z" style="fill: rgb(5, 75, 33); fill-opacity: 0.75;"></path><path transform="translate(45.45454545454546,321.2121212121212)" d="M0,3.989422804014327A3.989422804014327,3.989422804014327 0 1,1 0,-3.989422804014327A3.989422804014327,3.989422804014327 0 1,1 0,3.989422804014327Z" style="fill: rgb(176, 41, 57); fill-opacity: 0.75;"></path><path transform="translate(45.45454545454546,381.8181818181818)" d="M0,3.989422804014327A3.989422804014327,3.989422804014327 0 1,1 0,-3.989422804014327A3.989422804014327,3.989422804014327 0 1,1 0,3.989422804014327Z" style="fill: rgb(66, 35, 121); fill-opacity: 0.75;"></path></g></g><g transform="translate(0,0)"><rect class="background" width="0" height="0" style="fill: none;"></rect><g id="g19" class="type-symbol"><path transform="translate(81.81818181818183,200)" d="M0,3.989422804014327A3.989422804014327,3.989422804014327 0 1,1 0,-3.989422804014327A3.989422804014327,3.989422804014327 0 1,1 0,3.989422804014327Z" style="fill: rgb(243, 162, 16); fill-opacity: 0.75;"></path><path transform="translate(81.81818181818183,321.2121212121212)" d="M0,3.989422804014327A3.989422804014327,3.989422804014327 0 1,1 0,-3.989422804014327A3.989422804014327,3.989422804014327 0 1,1 0,3.989422804014327Z" style="fill: rgb(5, 75, 33); fill-opacity: 0.75;"></path><path transform="translate(81.81818181818183,321.2121212121212)" d="M0,3.989422804014327A3.989422804014327,3.989422804014327 0 1,1 0,-3.989422804014327A3.989422804014327,3.989422804014327 0 1,1 0,3.989422804014327Z" style="fill: rgb(176, 41, 57); fill-opacity: 0.75;"></path></g></g><g transform="translate(0,0)"><rect class="background" width="0" height="0" style="fill: none;"></rect><g id="g20" class="type-symbol"><path transform="translate(118.18181818181819,321.2121212121212)" d="M0,3.989422804014327A3.989422804014327,3.989422804014327 0 1,1 0,-3.989422804014327A3.989422804014327,3.989422804014327 0 1,1 0,3.989422804014327Z" style="fill: rgb(243, 162, 16); fill-opacity: 0.75;"></path><path transform="translate(118.18181818181819,200)" d="M0,3.989422804014327A3.989422804014327,3.989422804014327 0 1,1 0,-3.989422804014327A3.989422804014327,3.989422804014327 0 1,1 0,3.989422804014327Z" style="fill: rgb(5, 75, 33); fill-opacity: 0.75;"></path><path transform="translate(118.18181818181819,260.6060606060606)" d="M0,3.989422804014327A3.989422804014327,3.989422804014327 0 1,1 0,-3.989422804014327A3.989422804014327,3.989422804014327 0 1,1 0,3.989422804014327Z" style="fill: rgb(176, 41, 57); fill-opacity: 0.75;"></path><path transform="translate(118.18181818181819,260.6060606060606)" d="M0,3.989422804014327A3.989422804014327,3.989422804014327 0 1,1 0,-3.989422804014327A3.989422804014327,3.989422804014327 0 1,1 0,3.989422804014327Z" style="fill: rgb(66, 35, 121); fill-opacity: 0.75;"></path></g></g><g transform="translate(0,0)"><rect class="background" width="0" height="0" style="fill: none;"></rect><g id="g21" class="type-symbol"><path transform="translate(154.54545454545456,260.6060606060606)" d="M0,3.989422804014327A3.989422804014327,3.989422804014327 0 1,1 0,-3.989422804014327A3.989422804014327,3.989422804014327 0 1,1 0,3.989422804014327Z" style="fill: rgb(243, 162, 16); fill-opacity: 0.75;"></path><path transform="translate(154.54545454545456,78.78787878787881)" d="M0,3.989422804014327A3.989422804014327,3.989422804014327 0 1,1 0,-3.989422804014327A3.989422804014327,3.989422804014327 0 1,1 0,3.989422804014327Z" style="fill: rgb(5, 75, 33); fill-opacity: 0.75;"></path><path transform="translate(154.54545454545456,139.39393939393938)" d="M0,3.989422804014327A3.989422804014327,3.989422804014327 0 1,1 0,-3.989422804014327A3.989422804014327,3.989422804014327 0 1,1 0,3.989422804014327Z" style="fill: rgb(176, 41, 57); fill-opacity: 0.75;"></path><path transform="translate(154.54545454545456,260.6060606060606)" d="M0,3.989422804014327A3.989422804014327,3.989422804014327 0 1,1 0,-3.989422804014327A3.989422804014327,3.989422804014327 0 1,1 0,3.989422804014327Z" style="fill: rgb(66, 35, 121); fill-opacity: 0.75;"></path></g></g><g transform="translate(0,0)"><rect class="background" width="0" height="0" style="fill: none;"></rect><g id="g22" class="type-symbol"><path transform="translate(190.90909090909093,321.2121212121212)" d="M0,3.989422804014327A3.989422804014327,3.989422804014327 0 1,1 0,-3.989422804014327A3.989422804014327,3.989422804014327 0 1,1 0,3.989422804014327Z" style="fill: rgb(243, 162, 16); fill-opacity: 0.75;"></path><path transform="translate(190.90909090909093,260.6060606060606)" d="M0,3.989422804014327A3.989422804014327,3.989422804014327 0 1,1 0,-3.989422804014327A3.989422804014327,3.989422804014327 0 1,1 0,3.989422804014327Z" style="fill: rgb(176, 41, 57); fill-opacity: 0.75;"></path><path transform="translate(190.90909090909093,139.39393939393938)" d="M0,3.989422804014327A3.989422804014327,3.989422804014327 0 1,1 0,-3.989422804014327A3.989422804014327,3.989422804014327 0 1,1 0,3.989422804014327Z" style="fill: rgb(66, 35, 121); fill-opacity: 0.75;"></path></g></g><g transform="translate(0,0)"><rect class="background" width="0" height="0" style="fill: none;"></rect><g id="g23" class="type-symbol"><path transform="translate(227.27272727272728,260.6060606060606)" d="M0,3.989422804014327A3.989422804014327,3.989422804014327 0 1,1 0,-3.989422804014327A3.989422804014327,3.989422804014327 0 1,1 0,3.989422804014327Z" style="fill: rgb(243, 162, 16); fill-opacity: 0.75;"></path><path transform="translate(227.27272727272728,260.6060606060606)" d="M0,3.989422804014327A3.989422804014327,3.989422804014327 0 1,1 0,-3.989422804014327A3.989422804014327,3.989422804014327 0 1,1 0,3.989422804014327Z" style="fill: rgb(5, 75, 33); fill-opacity: 0.75;"></path><path transform="translate(227.27272727272728,200)" d="M0,3.989422804014327A3.989422804014327,3.989422804014327 0 1,1 0,-3.989422804014327A3.989422804014327,3.989422804014327 0 1,1 0,3.989422804014327Z" style="fill: rgb(176, 41, 57); fill-opacity: 0.75;"></path><path transform="translate(227.27272727272728,260.6060606060606)" d="M0,3.989422804014327A3.989422804014327,3.989422804014327 0 1,1 0,-3.989422804014327A3.989422804014327,3.989422804014327 0 1,1 0,3.989422804014327Z" style="fill: rgb(66, 35, 121); fill-opacity: 0.75;"></path></g></g><g transform="translate(0,0)"><rect class="background" width="0" height="0" style="fill: none;"></rect><g id="g24" class="type-symbol"><path transform="translate(263.6363636363636,200)" d="M0,3.989422804014327A3.989422804014327,3.989422804014327 0 1,1 0,-3.989422804014327A3.989422804014327,3.989422804014327 0 1,1 0,3.989422804014327Z" style="fill: rgb(243, 162, 16); fill-opacity: 0.75;"></path><path transform="translate(263.6363636363636,200)" d="M0,3.989422804014327A3.989422804014327,3.989422804014327 0 1,1 0,-3.989422804014327A3.989422804014327,3.989422804014327 0 1,1 0,3.989422804014327Z" style="fill: rgb(5, 75, 33); fill-opacity: 0.75;"></path><path transform="translate(263.6363636363636,321.2121212121212)" d="M0,3.989422804014327A3.989422804014327,3.989422804014327 0 1,1 0,-3.989422804014327A3.989422804014327,3.989422804014327 0 1,1 0,3.989422804014327Z" style="fill: rgb(176, 41, 57); fill-opacity: 0.75;"></path><path transform="translate(263.6363636363636,321.2121212121212)" d="M0,3.989422804014327A3.989422804014327,3.989422804014327 0 1,1 0,-3.989422804014327A3.989422804014327,3.989422804014327 0 1,1 0,3.989422804014327Z" style="fill: rgb(66, 35, 121); fill-opacity: 0.75;"></path></g></g><g transform="translate(0,0)"><rect class="background" width="0" height="0" style="fill: none;"></rect><g id="g25" class="type-symbol"><path transform="translate(300,200)" d="M0,3.989422804014327A3.989422804014327,3.989422804014327 0 1,1 0,-3.989422804014327A3.989422804014327,3.989422804014327 0 1,1 0,3.989422804014327Z" style="fill: rgb(243, 162, 16); fill-opacity: 0.75;"></path><path transform="translate(300,321.2121212121212)" d="M0,3.989422804014327A3.989422804014327,3.989422804014327 0 1,1 0,-3.989422804014327A3.989422804014327,3.989422804014327 0 1,1 0,3.989422804014327Z" style="fill: rgb(5, 75, 33); fill-opacity: 0.75;"></path><path transform="translate(300,381.8181818181818)" d="M0,3.989422804014327A3.989422804014327,3.989422804014327 0 1,1 0,-3.989422804014327A3.989422804014327,3.989422804014327 0 1,1 0,3.989422804014327Z" style="fill: rgb(176, 41, 57); fill-opacity: 0.75;"></path><path transform="translate(300,321.2121212121212)" d="M0,3.989422804014327A3.989422804014327,3.989422804014327 0 1,1 0,-3.989422804014327A3.989422804014327,3.989422804014327 0 1,1 0,3.989422804014327Z" style="fill: rgb(66, 35, 121); fill-opacity: 0.75;"></path></g></g><g transform="translate(0,0)"><rect class="background" width="0" height="0" style="fill: none;"></rect><g id="g26" class="type-symbol"><path transform="translate(336.3636363636364,139.39393939393938)" d="M0,3.989422804014327A3.989422804014327,3.989422804014327 0 1,1 0,-3.989422804014327A3.989422804014327,3.989422804014327 0 1,1 0,3.989422804014327Z" style="fill: rgb(243, 162, 16); fill-opacity: 0.75;"></path><path transform="translate(336.3636363636364,78.78787878787881)" d="M0,3.989422804014327A3.989422804014327,3.989422804014327 0 1,1 0,-3.989422804014327A3.989422804014327,3.989422804014327 0 1,1 0,3.989422804014327Z" style="fill: rgb(5, 75, 33); fill-opacity: 0.75;"></path><path transform="translate(336.3636363636364,321.2121212121212)" d="M0,3.989422804014327A3.989422804014327,3.989422804014327 0 1,1 0,-3.989422804014327A3.989422804014327,3.989422804014327 0 1,1 0,3.989422804014327Z" style="fill: rgb(176, 41, 57); fill-opacity: 0.75;"></path><path transform="translate(336.3636363636364,321.2121212121212)" d="M0,3.989422804014327A3.989422804014327,3.989422804014327 0 1,1 0,-3.989422804014327A3.989422804014327,3.989422804014327 0 1,1 0,3.989422804014327Z" style="fill: rgb(66, 35, 121); fill-opacity: 0.75;"></path></g></g><g transform="translate(0,0)"><rect class="background" width="0" height="0" style="fill: none;"></rect><g id="g27" class="type-symbol"><path transform="translate(372.72727272727275,321.2121212121212)" d="M0,3.989422804014327A3.989422804014327,3.989422804014327 0 1,1 0,-3.989422804014327A3.989422804014327,3.989422804014327 0 1,1 0,3.989422804014327Z" style="fill: rgb(243, 162, 16); fill-opacity: 0.75;"></path><path transform="translate(372.72727272727275,260.6060606060606)" d="M0,3.989422804014327A3.989422804014327,3.989422804014327 0 1,1 0,-3.989422804014327A3.989422804014327,3.989422804014327 0 1,1 0,3.989422804014327Z" style="fill: rgb(5, 75, 33); fill-opacity: 0.75;"></path><path transform="translate(372.72727272727275,200)" d="M0,3.989422804014327A3.989422804014327,3.989422804014327 0 1,1 0,-3.989422804014327A3.989422804014327,3.989422804014327 0 1,1 0,3.989422804014327Z" style="fill: rgb(176, 41, 57); fill-opacity: 0.75;"></path><path transform="translate(372.72727272727275,200)" d="M0,3.989422804014327A3.989422804014327,3.989422804014327 0 1,1 0,-3.989422804014327A3.989422804014327,3.989422804014327 0 1,1 0,3.989422804014327Z" style="fill: rgb(66, 35, 121); fill-opacity: 0.75;"></path></g></g><g transform="translate(0,0)"><rect class="background" width="0" height="0" style="fill: none;"></rect><g id="g28" class="type-symbol"><path transform="translate(409.0909090909091,139.39393939393938)" d="M0,3.989422804014327A3.989422804014327,3.989422804014327 0 1,1 0,-3.989422804014327A3.989422804014327,3.989422804014327 0 1,1 0,3.989422804014327Z" style="fill: rgb(243, 162, 16); fill-opacity: 0.75;"></path><path transform="translate(409.0909090909091,321.2121212121212)" d="M0,3.989422804014327A3.989422804014327,3.989422804014327 0 1,1 0,-3.989422804014327A3.989422804014327,3.989422804014327 0 1,1 0,3.989422804014327Z" style="fill: rgb(5, 75, 33); fill-opacity: 0.75;"></path><path transform="translate(409.0909090909091,18.181818181818187)" d="M0,3.989422804014327A3.989422804014327,3.989422804014327 0 1,1 0,-3.989422804014327A3.989422804014327,3.989422804014327 0 1,1 0,3.989422804014327Z" style="fill: rgb(176, 41, 57); fill-opacity: 0.75;"></path><path transform="translate(409.0909090909091,139.39393939393938)" d="M0,3.989422804014327A3.989422804014327,3.989422804014327 0 1,1 0,-3.989422804014327A3.989422804014327,3.989422804014327 0 1,1 0,3.989422804014327Z" style="fill: rgb(66, 35, 121); fill-opacity: 0.75;"></path></g></g><g transform="translate(0,0)"><rect class="background" width="0" height="0" style="fill: none;"></rect><g id="g29" class="type-symbol"><path transform="translate(445.45454545454544,260.6060606060606)" d="M0,3.989422804014327A3.989422804014327,3.989422804014327 0 1,1 0,-3.989422804014327A3.989422804014327,3.989422804014327 0 1,1 0,3.989422804014327Z" style="fill: rgb(243, 162, 16); fill-opacity: 0.75;"></path><path transform="translate(445.45454545454544,321.2121212121212)" d="M0,3.989422804014327A3.989422804014327,3.989422804014327 0 1,1 0,-3.989422804014327A3.989422804014327,3.989422804014327 0 1,1 0,3.989422804014327Z" style="fill: rgb(5, 75, 33); fill-opacity: 0.75;"></path><path transform="translate(445.45454545454544,321.2121212121212)" d="M0,3.989422804014327A3.989422804014327,3.989422804014327 0 1,1 0,-3.989422804014327A3.989422804014327,3.989422804014327 0 1,1 0,3.989422804014327Z" style="fill: rgb(176, 41, 57); fill-opacity: 0.75;"></path><path transform="translate(445.45454545454544,78.78787878787881)" d="M0,3.989422804014327A3.989422804014327,3.989422804014327 0 1,1 0,-3.989422804014327A3.989422804014327,3.989422804014327 0 1,1 0,3.989422804014327Z" style="fill: rgb(66, 35, 121); fill-opacity: 0.75;"></path></g></g><g transform="translate(0,0)"><rect class="background" width="0" height="0" style="fill: none;"></rect><g id="g30" class="type-symbol"><path transform="translate(481.8181818181818,321.2121212121212)" d="M0,3.989422804014327A3.989422804014327,3.989422804014327 0 1,1 0,-3.989422804014327A3.989422804014327,3.989422804014327 0 1,1 0,3.989422804014327Z" style="fill: rgb(243, 162, 16); fill-opacity: 0.75;"></path><path transform="translate(481.8181818181818,260.6060606060606)" d="M0,3.989422804014327A3.989422804014327,3.989422804014327 0 1,1 0,-3.989422804014327A3.989422804014327,3.989422804014327 0 1,1 0,3.989422804014327Z" style="fill: rgb(5, 75, 33); fill-opacity: 0.75;"></path><path transform="translate(481.8181818181818,381.8181818181818)" d="M0,3.989422804014327A3.989422804014327,3.989422804014327 0 1,1 0,-3.989422804014327A3.989422804014327,3.989422804014327 0 1,1 0,3.989422804014327Z" style="fill: rgb(176, 41, 57); fill-opacity: 0.75;"></path><path transform="translate(481.8181818181818,260.6060606060606)" d="M0,3.989422804014327A3.989422804014327,3.989422804014327 0 1,1 0,-3.989422804014327A3.989422804014327,3.989422804014327 0 1,1 0,3.989422804014327Z" style="fill: rgb(66, 35, 121); fill-opacity: 0.75;"></path></g></g><g transform="translate(0,0)"><rect class="background" width="0" height="0" style="fill: none;"></rect><g id="g31" class="type-symbol"><path transform="translate(518.1818181818182,321.2121212121212)" d="M0,3.989422804014327A3.989422804014327,3.989422804014327 0 1,1 0,-3.989422804014327A3.989422804014327,3.989422804014327 0 1,1 0,3.989422804014327Z" style="fill: rgb(5, 75, 33); fill-opacity: 0.75;"></path><path transform="translate(518.1818181818182,260.6060606060606)" d="M0,3.989422804014327A3.989422804014327,3.989422804014327 0 1,1 0,-3.989422804014327A3.989422804014327,3.989422804014327 0 1,1 0,3.989422804014327Z" style="fill: rgb(176, 41, 57); fill-opacity: 0.75;"></path><path transform="translate(518.1818181818182,260.6060606060606)" d="M0,3.989422804014327A3.989422804014327,3.989422804014327 0 1,1 0,-3.989422804014327A3.989422804014327,3.989422804014327 0 1,1 0,3.989422804014327Z" style="fill: rgb(66, 35, 121); fill-opacity: 0.75;"></path></g></g><g transform="translate(0,0)"><rect class="background" width="0" height="0" style="fill: none;"></rect><g id="g32" class="type-symbol"><path transform="translate(554.5454545454546,321.2121212121212)" d="M0,3.989422804014327A3.989422804014327,3.989422804014327 0 1,1 0,-3.989422804014327A3.989422804014327,3.989422804014327 0 1,1 0,3.989422804014327Z" style="fill: rgb(243, 162, 16); fill-opacity: 0.75;"></path><path transform="translate(554.5454545454546,381.8181818181818)" d="M0,3.989422804014327A3.989422804014327,3.989422804014327 0 1,1 0,-3.989422804014327A3.989422804014327,3.989422804014327 0 1,1 0,3.989422804014327Z" style="fill: rgb(5, 75, 33); fill-opacity: 0.75;"></path><path transform="translate(554.5454545454546,321.2121212121212)" d="M0,3.989422804014327A3.989422804014327,3.989422804014327 0 1,1 0,-3.989422804014327A3.989422804014327,3.989422804014327 0 1,1 0,3.989422804014327Z" style="fill: rgb(176, 41, 57); fill-opacity: 0.75;"></path><path transform="translate(554.5454545454546,321.2121212121212)" d="M0,3.989422804014327A3.989422804014327,3.989422804014327 0 1,1 0,-3.989422804014327A3.989422804014327,3.989422804014327 0 1,1 0,3.989422804014327Z" style="fill: rgb(66, 35, 121); fill-opacity: 0.75;"></path></g></g><g transform="translate(0,0)"><rect class="background" width="0" height="0" style="fill: none;"></rect><g id="g33" class="type-symbol"><path transform="translate(590.909090909091,381.8181818181818)" d="M0,3.989422804014327A3.989422804014327,3.989422804014327 0 1,1 0,-3.989422804014327A3.989422804014327,3.989422804014327 0 1,1 0,3.989422804014327Z" style="fill: rgb(66, 35, 121); fill-opacity: 0.75;"></path></g></g></g><g id="g34" class="type-group"><g transform="translate(611.5,0.5)"><rect class="background" width="102" height="76" style="pointer-events: none; fill: none;"></rect><g id="g35" class="type-text" style="pointer-events: none;"><text x="3" y="3" text-anchor="start" dy=".9em" style="font-weight: bold; font-style: normal; font-variant: normal; font-size: 11px; line-height: normal; font-family: sans-serif; fill: rgb(0, 0, 0); opacity: 1;">Grand Slam Event</text></g><g id="g36" class="type-symbol" style="pointer-events: none;"><path transform="translate(7.5,23)" d="M0,3.989422804014327A3.989422804014327,3.989422804014327 0 1,1 0,-3.989422804014327A3.989422804014327,3.989422804014327 0 1,1 0,3.989422804014327Z" style="fill: rgb(243, 162, 16); stroke: rgb(136, 136, 136); stroke-width: 1px; opacity: 1;"></path><path transform="translate(7.5,38)" d="M0,3.989422804014327A3.989422804014327,3.989422804014327 0 1,1 0,-3.989422804014327A3.989422804014327,3.989422804014327 0 1,1 0,3.989422804014327Z" style="fill: rgb(5, 75, 33); stroke: rgb(136, 136, 136); stroke-width: 1px; opacity: 1;"></path><path transform="translate(7.5,53)" d="M0,3.989422804014327A3.989422804014327,3.989422804014327 0 1,1 0,-3.989422804014327A3.989422804014327,3.989422804014327 0 1,1 0,3.989422804014327Z" style="fill: rgb(176, 41, 57); stroke: rgb(136, 136, 136); stroke-width: 1px; opacity: 1;"></path><path transform="translate(7.5,68)" d="M0,3.989422804014327A3.989422804014327,3.989422804014327 0 1,1 0,-3.989422804014327A3.989422804014327,3.989422804014327 0 1,1 0,3.989422804014327Z" style="fill: rgb(66, 35, 121); stroke: rgb(136, 136, 136); stroke-width: 1px; opacity: 1;"></path></g><g id="g37" class="type-text" style="pointer-events: none;"><text x="16" y="23" text-anchor="start" dy=".35em" style="font-style: normal; font-variant: normal; font-weight: normal; font-size: 10px; line-height: normal; font-family: sans-serif; fill: rgb(0, 0, 0); opacity: 1;">Australian Open</text><text x="16" y="38" text-anchor="start" dy=".35em" style="font-style: normal; font-variant: normal; font-weight: normal; font-size: 10px; line-height: normal; font-family: sans-serif; fill: rgb(0, 0, 0); opacity: 1;">Roland Garros</text><text x="16" y="53" text-anchor="start" dy=".35em" style="font-style: normal; font-variant: normal; font-weight: normal; font-size: 10px; line-height: normal; font-family: sans-serif; fill: rgb(0, 0, 0); opacity: 1;">US Open</text><text x="16" y="68" text-anchor="start" dy=".35em" style="font-style: normal; font-variant: normal; font-weight: normal; font-size: 10px; line-height: normal; font-family: sans-serif; fill: rgb(0, 0, 0); opacity: 1;">Wimbledon</text></g></g></g></g></g></g></svg>